<svg xmlns="http://www.w3.org/2000/svg" viewBox="0 0 640 510" height="100%" width="100%">
<defs>
<marker id="b" overflow="visible" orient="auto"><path transform="scale(-.6)" d="m8.72 4.03l-10.9-4.01 10.9-4.02c-1.75 2.37-1.74 5.62 0 8.04z" fill="#13f"/></marker>
<marker id="a" overflow="visible" orient="auto"><path transform="scale(-.6)" d="m8.72 4.03l-10.9-4.01 10.9-4.02c-1.75 2.37-1.74 5.62 0 8.04z" fill="#f21"/></marker>
</defs>
<path d="m189 1h262v73.2h-262z" fill="#e97"/>
<g stroke="#13f" stroke-width="2">
	<path marker-end="url(#b)" d="m236 222 21.8-29.1"/>
	<path marker-end="url(#b)" d="m311 336-22-29"/>
	<path marker-end="url(#b)" d="m266 105v-28.8"/>
</g>
<g stroke="#f21" stroke-width="2">
	<path marker-end="url(#a)" d="m383 188 21 29.7"/>
	<path marker-end="url(#a)" d="m420 303-21 29.7"/>
	<path marker-end="url(#a)" d="m516 303 21 29.7"/>
	<path marker-end="url(#a)" d="m357 74.8v28.8"/>
	<path marker-end="url(#a)" d="m251 366-30.9 0.018"/>
	<path marker-end="url(#a)" d="m251 470-30.9 0.018"/>
</g>
<g fill="#ed8">
	<path d="m187 106h266v84.4h-266z"/>
	<path d="m57.1 220h274v84.4h-274z"/>
	<path d="m344 220h238v84.4h-238z"/>
	<path d="m2.2 334h215v69.5h-215z"/>
	<path d="m0.9 425h217v84.4h-217z"/>
	<path d="m444 334h195v173h-195z"/>
	<path d="m237 334h195v173h-195z"/>
</g>
<g font-size="13px" font-family="Arial">
<g fill="#007">
	<text y="43.89" x="217">Brain and spinal cord</text>
	<text y="62.89" x="216">Integrative and control centers</text>
	<text y="147.8" x="216">Cranial nerves and spinal nerves</text>
	<text y="166.8" x="216">Communication lines between the CNS</text>
	<text y="180.8" x="216">and the rest of the body</text>
	<text y="262.8" x="80">Somatic and visceral sensory nerve fibers</text>
	<text y="281.8" x="80">Conducts impulses from receptors</text>
	<text y="294.8" x="80">to the CNS</text>
	<text y="262.8" x="367">Motor nerve fibers</text>
	<text y="281.8" x="367">Conducts impulses from the CNS</text>
	<text y="294.8" x="366.9">to effectors (muscles and glands)</text>
	<text y="374.8" x="25">Mobilizes body systems during</text>
	<text y="387.8" x="25">activity (&quot;fight or flight&quot;)</text>
	<text y="466.8" x="24">Conserves energy</text>
	<text y="486.8" x="23.7">Promotes &quot;housekeeping&quot;</text>
	<text y="499.8" x="23.7">functions during rest</text>
	<text y="394.8" x="467">Somatic motor (voluntary)</text>
	<text y="413.8" x="467">Conducts impulses from the</text>
	<text y="426.8" x="467">CNS to skeletal muscles</text>
</g>
	<text y="16.89" x="32">Key:</text>
	<text y="34.89" x="47">= Structure</text>
	<text y="51.89" x="47">= Function</text>
	<g font-size="16px">
		<text y="22.89" x="207">Central Nervous System (CNS)</text>
		<text y="126.8" x="196">Peripheral Nervous System (PNS)</text>
		<text y="241.8" x="86">Sensory (afferent) division</text>
		<text y="241.8" x="367">Motor (efferent) division</text>
		<text y="355.8" x="33">Sympathetic division</text>
		<text y="446.8" x="13.7">Parasympathetic division</text>
		<text y="355.8" x="472">Somatic nervous</text>
		<text y="371.8" x="508">system</text>
		<text y="355.8" x="258">Autonomic nervous</text>
		<text y="371.8" x="278">system (ANS)</text>
	</g>
<g fill="#007">
	<text y="394.8" x="260">Visceral motor (involuntary)</text>
	<text y="413.8" x="260">Conducts impulses from the</text>
	<text y="426.8" x="260">CNS to cardiac muscles,</text>
	<text y="440.8" x="260">smooth muscles, and glands</text>
</g>
</g>
<g fill="#0f0">
	<path d="m206 35.8h7v7h-7z"/>
	<path d="m206 141h7v7h-7z"/>
	<path d="m70.1 275h7v7h-7z"/>
	<path d="m357 275h7v7h-7z"/>
	<path d="m457 407h7v7h-7z"/>
	<path d="m250 407h7v7h-7z"/>
	<path d="m35.7 27.8h7v7h-7z"/>
</g>
<g fill="#f00">
	<path d="m206 55.8h7v7h-7z"/>
	<path d="m206 160h7v7h-7z"/>
	<path d="m70.1 255h7v7h-7z"/>
	<path d="m357 255h7v7h-7z"/>
	<path d="m14.8 368h7v7h-7z"/>
	<path d="m13.5 460h7v7h-7z"/>
	<path d="m13.5 480h7v7h-7z"/>
	<path d="m457 387h7v7h-7z"/>
	<path d="m250 387h7v7h-7z"/>
	<path d="m35.7 43.8h7v7h-7z"/>
</g>
</svg>